<?xml version="1.0" standalone="no"?><!DOCTYPE svg PUBLIC "-//W3C//DTD SVG 1.1//EN" "http://www.w3.org/Graphics/SVG/1.1/DTD/svg11.dtd"><svg t="1664413986057" class="icon" viewBox="0 0 1024 1024" version="1.1" xmlns="http://www.w3.org/2000/svg" p-id="5915" xmlns:xlink="http://www.w3.org/1999/xlink" width="200" height="200"><path d="M514 514.3m-237 0a237 237 0 1 0 474 0 237 237 0 1 0-474 0Z" fill="#F1F2F2" p-id="5916"></path><path d="M514 514.3m-153.5 0a153.5 153.5 0 1 0 307 0 153.5 153.5 0 1 0-307 0Z" fill="#55FDC3" p-id="5917"></path><path d="M514 172.5c20.4 0 37 16.6 37 37s-16.6 37-37 37-37-16.6-37-37 16.6-37 37-37z" fill="#00A5FF" p-id="5918"></path><path d="M514 782.1c20.4 0 37 16.6 37 37s-16.6 37-37 37-37-16.6-37-37c0-20.5 16.6-37 37-37zM233.8 514.3c0 20.4-16.6 37-37 37s-37-16.6-37-37 16.6-37 37-37 37 16.6 37 37zM868.2 514.3c0 20.4-16.6 37-37 37s-37-16.6-37-37 16.6-37 37-37 37 16.6 37 37z" fill="#80F688" p-id="5919"></path><path d="M280.3 345.7l186.8 186.8c15.5 15.5 40.6 15.5 56 0 15.5-15.5 15.5-40.6 0-56L336.3 289.7c-15.5-15.5-40.6-15.5-56 0-15.5 15.5-15.5 40.6 0 56z" fill="#00D8FF" p-id="5920"></path><path d="M570.7 471.2l157.8-13.8c21.8-1.9 41 14.2 42.9 36s-14.2 41-36 42.9l-157.8 13.8c-21.8 1.9-41-14.2-42.9-36-1.9-21.8 14.2-41 36-42.9z" fill="#00D8FF" p-id="5921"></path><path d="M514 514.3m-79 0a79 79 0 1 0 158 0 79 79 0 1 0-158 0Z" fill="#80F688" p-id="5922"></path><path d="M514 929.3c-56 0-110.4-11-161.5-32.6-49.4-20.9-93.8-50.8-131.9-88.9-38.1-38.1-68-82.5-88.9-131.9C110 624.7 99 570.3 99 514.3s11-110.4 32.6-161.5c20.9-49.4 50.8-93.8 88.9-131.9s82.5-68 131.9-88.9C403.6 110.3 458 99.3 514 99.3s110.4 11 161.5 32.6c49.4 20.9 93.8 50.8 131.9 88.9 38.1 38.1 68 82.5 88.9 131.9C918 403.9 929 458.3 929 514.3s-11 110.4-32.6 161.5c-20.9 49.4-50.8 93.8-88.9 131.9-38.1 38.1-82.5 68-131.9 88.9-51.2 21.7-105.6 32.7-161.6 32.7z m0-782c-98 0-190.2 38.2-259.5 107.5S147 416.3 147 514.3s38.2 190.2 107.5 259.5S416 881.3 514 881.3s190.2-38.2 259.5-107.5S881 612.3 881 514.3s-38.2-190.2-107.5-259.5S612 147.3 514 147.3z" fill="#00D8FF" p-id="5923"></path></svg>