<?xml version="1.0" standalone="no"?><!DOCTYPE svg PUBLIC "-//W3C//DTD SVG 1.1//EN" "http://www.w3.org/Graphics/SVG/1.1/DTD/svg11.dtd"><svg t="1664413512269" class="icon" viewBox="0 0 1024 1024" version="1.1" xmlns="http://www.w3.org/2000/svg" p-id="3133" xmlns:xlink="http://www.w3.org/1999/xlink" width="200" height="200"><path d="M800 224H224l13.91 160h548.18z" fill="#F3F3F3" p-id="3134"></path><path d="M237.91 384L288 960h448l50.09-576z" fill="#F8E0B3" p-id="3135"></path><path d="M669.82 80.56L608 64l-42.87 160h66.25z" fill="#3A454E" p-id="3136"></path><path d="M631.38 224h-66.25l-42.87 160h66.25z" fill="#586A77" p-id="3137"></path><path d="M816.74 224H207.26c-8.43 0-15.26-6.83-15.26-15.26v-1.49c0-8.43 6.83-15.26 15.26-15.26h609.49c8.43 0 15.26 6.83 15.26 15.26v1.49c-0.01 8.43-6.84 15.26-15.27 15.26z" fill="#E6E6E6" p-id="3138"></path><path d="M544 736m-32 0a32 32 0 1 0 64 0 32 32 0 1 0-64 0Z" fill="#4A3E3E" p-id="3139"></path><path d="M608 800m-32 0a32 32 0 1 0 64 0 32 32 0 1 0-64 0Z" fill="#4A3E3E" p-id="3140"></path><path d="M448 800m-32 0a32 32 0 1 0 64 0 32 32 0 1 0-64 0Z" fill="#4A3E3E" p-id="3141"></path><path d="M512 864m-32 0a32 32 0 1 0 64 0 32 32 0 1 0-64 0Z" fill="#4A3E3E" p-id="3142"></path><path d="M640 896m-32 0a32 32 0 1 0 64 0 32 32 0 1 0-64 0Z" fill="#4A3E3E" p-id="3143"></path><path d="M320 896m-32 0a32 32 0 1 0 64 0 32 32 0 1 0-64 0Z" fill="#4A3E3E" p-id="3144"></path><path d="M384 832m-32 0a32 32 0 1 0 64 0 32 32 0 1 0-64 0Z" fill="#4A3E3E" p-id="3145"></path><path d="M384 926m-32 0a32 32 0 1 0 64 0 32 32 0 1 0-64 0Z" fill="#4A3E3E" p-id="3146"></path><path d="M448 896m-32 0a32 32 0 1 0 64 0 32 32 0 1 0-64 0Z" fill="#4A3E3E" p-id="3147"></path><path d="M480 926m-32 0a32 32 0 1 0 64 0 32 32 0 1 0-64 0Z" fill="#4A3E3E" p-id="3148"></path><path d="M576 926m-32 0a32 32 0 1 0 64 0 32 32 0 1 0-64 0Z" fill="#4A3E3E" p-id="3149"></path><path d="M576 864m-32 0a32 32 0 1 0 64 0 32 32 0 1 0-64 0Z" fill="#4A3E3E" p-id="3150"></path><path d="M704 864m-32 0a32 32 0 1 0 64 0 32 32 0 1 0-64 0Z" fill="#4A3E3E" p-id="3151"></path><path d="M704 926m-32 0a32 32 0 1 0 64 0 32 32 0 1 0-64 0Z" fill="#4A3E3E" p-id="3152"></path></svg>